<svg width="88" viewBox="0 0 88 80" fill="none" xmlns="http://www.w3.org/2000/svg"><g clip-path="url(#lightbulb_svg__a)"><path d="M51.211 71.648H35.873v7.599H51.21v-7.599Z" fill="url(#lightbulb_svg__b)" stroke="#21294C" stroke-width="1.503" stroke-linecap="round" stroke-linejoin="round"></path><path fill-rule="evenodd" clip-rule="evenodd" d="M53.574 65.733c0-3.332 2.161-6.208 5.02-7.91a28.32 28.32 0 1 0-30.012-.686c2.83 1.854 4.93 4.797 4.93 8.172a8.277 8.277 0 0 0 8.279 8.278h3.926a7.857 7.857 0 0 0 7.857-7.854Z" fill="url(#lightbulb_svg__c)" stroke="#21294C" stroke-width="1.503" stroke-linecap="round" stroke-linejoin="round"></path><path fill-rule="evenodd" clip-rule="evenodd" d="M64.561 13.85a28.3 28.3 0 1 0-35.965 43.287c2.83 1.854 4.931 4.797 4.931 8.172 0 1.94.684 3.82 1.932 5.306l4.952-1.662V28.13l9.905-12.735s7.942-.753 14.245-1.546Z" fill="url(#lightbulb_svg__d)" stroke="#21294C" stroke-width="1.503" stroke-linecap="round" stroke-linejoin="round"></path><path d="M53.57 66.123H33.513v9.438H53.57v-9.439Z" fill="url(#lightbulb_svg__e)" stroke="#21294C" stroke-width="1.503" stroke-linecap="round" stroke-linejoin="round"></path><path d="M51.211 71.648H35.873v3.913H51.21v-3.913Z" fill="#EEF582" stroke="#21303B" stroke-width="1.503" stroke-linecap="round" stroke-linejoin="round"></path><path d="M3.593 18.73H6.31a2.717 2.717 0 0 0-2.717-2.716v2.717Zm0 0v-2.716a2.717 2.717 0 0 0-2.717 2.717h2.717Zm0 0H.887a2.717 2.717 0 0 0 2.717 2.718l-.011-2.717Zm0 0v2.718A2.717 2.717 0 0 0 6.31 18.73H3.593Z" fill="#0A0A0A"></path><path d="M3.593 20.09a1.358 1.358 0 1 0 0-2.717 1.358 1.358 0 0 0 0 2.716Z" fill="#EEF582"></path><path d="m78.874 64.41 1.896-2.83-2.253-1.514-1.897 2.83 2.254 1.514Zm-4.026 1.479 3.272-.93-.746-2.615-3.269.934.743 2.611Zm2.795.534-2.098-2.678-2.123 1.677 2.098 2.674 2.123-1.673Zm.166 4.284.124-3.4-2.717-.099-.124 3.4 2.717.099Zm1.369-2.476-3.184 1.167.934 2.55 3.184-1.167-.934-2.55Zm4.125 1.167-3.184-1.167-.934 2.55 3.184 1.168.934-2.55Zm-1.95-2.073.128 3.4 2.713-.1-.124-3.399-2.716.1Zm2.389-3.562-2.098 2.678 2.122 1.673 2.098-2.674-2.123-1.677Zm-2.572 1.213 3.268.93.743-2.61-3.269-.934-.742 2.614Zm-2.653-3.37 1.896 2.83 2.253-1.519-1.896-2.83-2.253 1.518Zm-.772 2.065.375 1.305.478-.138.276-.41-1.129-.757Zm-3.268.93-.372-1.305-1.942.552 1.245 1.592 1.069-.839Zm2.097 2.675 1.359.05.018-.496-.308-.39-1.069.836Zm-.123 3.4-1.359-.05-.07 2.02 1.896-.708-.467-1.263Zm3.183-1.168.467-1.277-.467-.17-.466.17.466 1.277Zm3.184 1.167-.467 1.274 1.9.707-.074-2.02-1.359.04Zm-.124-3.4-1.061-.834-.308.389.018.495 1.351-.05Zm2.098-2.674 1.061.839 1.25-1.592-1.947-.552-.364 1.305Zm-3.269-.93-1.128.757.28.41.477.138.371-1.305Zm-1.896-2.83 1.125-.757-1.125-1.677-1.128 1.677 1.128.757Z" fill="#0A0A0A"></path><path d="m79.642 60.83 1.896 2.823 3.272.93-2.098 2.675.124 3.4-3.194-1.168-3.191 1.168.124-3.4-2.098-2.674 3.269-.93 1.896-2.824Z" fill="#EEF582"></path><path d="m11.004 4.956 1.185-1.769-2.253-1.514L8.75 3.442l2.253 1.514ZM8.206 6.088l2.045-.584-.747-2.614-2.041.584.743 2.614Zm2.01-.474L8.902 3.94 6.78 5.617l1.31 1.674 2.125-1.677Zm.208 3.01.078-2.122-2.714-.1-.077 2.123 2.713.1Zm.173-2.055-1.995.732.93 2.55 1.999-.728-.934-2.554Zm2.93.732L11.53 6.57l-.934 2.554 1.995.729.934-2.55Zm-1.904-.8.078 2.123 2.713-.099-.078-2.122-2.713.099Zm1.6-2.56-1.31 1.673 2.123 1.677 1.312-1.674-2.126-1.676Zm-1.349 1.563 2.045.584.746-2.614-2.044-.584-.747 2.614ZM9.936 3.191l1.185 1.768 2.253-1.513-1.185-1.77-2.253 1.515Zm-.057 1.008.372 1.305.477-.138.276-.41-1.125-.757Zm-2.045.58-.371-1.305-1.946.555 1.25 1.588 1.067-.838Zm1.31 1.673 1.358.05v-.495l-.305-.393-1.054.838Zm-.078 2.123-1.355-.05-.075 2.02 1.896-.707-.466-1.263Zm1.998-.729.467-1.277-.467-.17-.467.17.467 1.277Zm1.995.729-.467 1.277 1.896.707-.074-2.02-1.355.036Zm-.078-2.123-1.06-.838-.309.393.018.495 1.351-.05Zm1.31-1.673 1.06.838 1.246-1.588-1.942-.555-.365 1.305Zm-2.042-.58-1.128.757.276.41.477.138.375-1.305ZM11.064 2.43l1.125-.757-1.125-1.677-1.128 1.677 1.128.757Z" fill="#0A0A0A"></path><path d="m11.06 2.434 1.186 1.765 2.044.58-1.308 1.673.074 2.123-1.995-.729-1.995.729.077-2.123L7.831 4.78l2.045-.58 1.185-1.765Z" fill="#EEF582"></path><path d="M40.938 49.967H39.58v16.297h1.358V49.967ZM47.73 49.967h-1.358v16.297h1.358V49.967Z" fill="#21303B"></path><path d="M34.847 38.424a6.113 6.113 0 0 0-6.113 6.11h1.358a4.754 4.754 0 0 1 4.755-4.755v-1.355Zm0 1.355a4.754 4.754 0 0 1 4.754 4.754h1.355a6.11 6.11 0 0 0-6.11-6.109v1.355Zm0 9.509a4.754 4.754 0 0 1-4.755-4.755h-1.358a6.113 6.113 0 0 0 6.113 6.113v-1.358Zm5.43 0h-5.43v1.358h5.43v-1.358Zm-.676-4.755v5.434h1.355v-5.434H39.6Zm.676 5.434v.679h.679v-.68h-.68ZM52.484 38.424a6.11 6.11 0 0 1 6.11 6.11h-1.359a4.753 4.753 0 0 0-4.75-4.755v-1.355Zm0 1.355a4.754 4.754 0 0 0-4.754 4.754h-1.358a6.113 6.113 0 0 1 6.112-6.109v1.355Zm0 9.509a4.752 4.752 0 0 0 4.751-4.755h1.358a6.113 6.113 0 0 1-6.109 6.113v-1.358Zm-5.433 0h5.433v1.358h-5.433v-1.358Zm.679-4.755v5.434h-1.358v-5.434h1.358Zm-.68 5.434v.679h-.678v-.68h.679Z" fill="#21303B"></path></g><defs><linearGradient id="lightbulb_svg__b" x1="35.873" y1="75.451" x2="51.215" y2="75.451" gradientUnits="userSpaceOnUse"><stop offset="0.25" stop-color="#8D7FF6"></stop><stop offset="1" stop-color="#F2B3E5"></stop></linearGradient><linearGradient id="lightbulb_svg__c" x1="65.81" y1="52.248" x2="38.536" y2="34.582" gradientUnits="userSpaceOnUse"><stop stop-color="#B7EAD5"></stop><stop offset="0.19" stop-color="#B4E6D6"></stop><stop offset="0.37" stop-color="#ACDCD8"></stop><stop offset="0.54" stop-color="#9FC9DB"></stop><stop offset="0.7" stop-color="#8CB0E0"></stop><stop offset="0.85" stop-color="#748FE6"></stop><stop offset="1" stop-color="#5869ED"></stop></linearGradient><linearGradient id="lightbulb_svg__d" x1="19.911" y1="19.842" x2="36.339" y2="31.929" gradientUnits="userSpaceOnUse"><stop stop-color="#E7EAFD"></stop><stop offset="0.54" stop-color="#CFEAE9"></stop><stop offset="1" stop-color="#B7EAD5"></stop></linearGradient><linearGradient id="lightbulb_svg__e" x1="33.513" y1="70.841" x2="53.574" y2="70.841" gradientUnits="userSpaceOnUse"><stop stop-color="#294487"></stop><stop offset="1" stop-color="#21303B"></stop></linearGradient><clipPath id="lightbulb_svg__a"><path fill="#fff" transform="translate(.876)" d="M0 0h86.247v80H0z"></path></clipPath></defs></svg>